<svg xmlns="http://www.w3.org/2000/svg" viewBox="0 0 500.00 471.00" data-guides="{&quot;vertical&quot;:[],&quot;horizontal&quot;:[]}"><defs/><path fill="#333333" stroke="#ffffff" fill-opacity="1" stroke-width="50" stroke-opacity="1" id="tSvg17c23004efe" title="Path 7" d="M165 43C183 43 201 43 219 43C219 95 219 147 219 199C201 199 183 199 165 199C165 147 165 95 165 43Z"/><path fill="#333333" stroke="#ffffff" fill-opacity="1" stroke-width="50" stroke-opacity="1" id="tSvg269a6267d3" title="Path 6" d="M281 43C299 43 317 43 335 43C335 95 335 147 335 199C317 199 299 199 281 199C281 147 281 95 281 43Z"/><path fill="#3aa138" stroke="#ffffff" fill-opacity="1" stroke-width="50" stroke-opacity="1" id="tSvg1104a9cbed7" title="Path 5" d="M310 8C326.3333 8 342.6667 8 359 8C359 60 359 112 359 164C342.6667 164 326.3333 164 310 164C310 112 310 60 310 8Z"/><path fill="#3aa138" stroke="#ffffff" fill-opacity="1" stroke-width="50" stroke-opacity="1" id="tSvg8c29510781" title="Path 4" d="M138 8C154.3333 8 170.6667 8 187 8C187 60 187 112 187 164C170.6667 164 154.3333 164 138 164C138 112 138 60 138 8Z"/><path fill="#616161" stroke="#ffffff" fill-opacity="1" stroke-width="50" stroke-opacity="1" id="tSvg175decfcf53" title="Path 3" d="M251 63C361.457 63 451 152.543 451 263C451 373.457 361.457 463 251 463C140.543 463 51 373.457 51 263C51 152.543 140.543 63 251 63Z"/><path fill="#333333" stroke="#ffffff" fill-opacity="1" stroke-width="50" stroke-opacity="1" id="tSvg13cd96f9030" title="Path 2" d="M402 163C431.6667 163 461.3333 163 491 163C491 231.3333 491 299.6667 491 368C461.3333 368 431.6667 368 402 368C402 299.6667 402 231.3333 402 163Z"/><path fill="#333333" stroke="#ffffff" fill-opacity="1" stroke-width="50" stroke-opacity="1" id="tSvg81b7b6a9ee" title="Path 1" d="M7 163C36.6667 163 66.3333 163 96 163C96 231.3333 96 299.6667 96 368C66.3333 368 36.6667 368 7 368C7 299.6667 7 231.3333 7 163Z"/><path fill="#3aa138" stroke="#164100" fill-opacity="1" stroke-width="8" stroke-opacity="1" alignment-baseline="" baseline-shift="" id="tSvg141e203c961" rx="0" ry="0" title="Rectangle 5" d="M138 8C154.3333 8 170.6667 8 187 8C187 60 187 112 187 164C170.6667 164 154.3333 164 138 164C138 112 138 60 138 8Z" style="transform-origin: -4837.5px -4914px 0px;"/><path fill="#3aa138" stroke="#033503" fill-opacity="1" stroke-width="8" stroke-opacity="1" alignment-baseline="" baseline-shift="" id="tSvgae817e55c8" rx="0" ry="0" title="Rectangle 6" d="M310 8C326.3333 8 342.6667 8 359 8C359 60 359 112 359 164C342.6667 164 326.3333 164 310 164C310 112 310 60 310 8Z" style="transform-origin: -4665.5px -4914px 0px;"/><path fill="#333333" stroke="#000000" fill-opacity="1" stroke-width="8" stroke-opacity="1" alignment-baseline="" baseline-shift="" id="tSvg2a54f9889d" title="Rectangle 1" d="M403 163C432.6667 163 462.3333 163 492 163C492 231.3333 492 299.6667 492 368C462.3333 368 432.6667 368 403 368C403 299.6667 403 231.3333 403 163Z" style="transform-origin: -4552.5px -4734.5px 0px;"/><path fill="#333333" stroke="#000000" fill-opacity="1" stroke-width="8" stroke-opacity="1" alignment-baseline="" baseline-shift="" id="tSvgf5a258d5d" rx="0" ry="0" title="Rectangle 3" d="M165 43C183 43 201 43 219 43C219 95 219 147 219 199C201 199 183 199 165 199C165 147 165 95 165 43Z" style="transform-origin: -4808px -4879px 0px;"/><path fill="#333333" stroke="#000000" fill-opacity="1" stroke-width="8" stroke-opacity="1" alignment-baseline="" baseline-shift="" id="tSvg1461a283b6a" rx="0" ry="0" title="Rectangle 4" d="M280 43C298 43 316 43 334 43C334 95 334 147 334 199C316 199 298 199 280 199C280 147 280 95 280 43Z" style="transform-origin: -4693px -4879px 0px;"/><path fill="#333333" stroke="#000000" fill-opacity="1" stroke-width="8" stroke-opacity="1" alignment-baseline="" baseline-shift="" id="tSvg7ad4d1af62" rx="0" ry="0" title="Rectangle 2" d="M8 163C37.6667 163 67.3333 163 97 163C97 231.3333 97 299.6667 97 368C67.3333 368 37.6667 368 8 368C8 299.6667 8 231.3333 8 163Z" style="transform-origin: -4947.5px -4734.5px 0px;"/><path fill="#616161" stroke="#000000" fill-opacity="1" stroke-width="8" stroke-opacity="1" alignment-baseline="" baseline-shift="" id="tSvgec882553c6" title="Ellipse 1" d="M251 63C361.457 63 451 152.543 451 263C451 373.457 361.457 463 251 463C140.543 463 51 373.457 51 263C51 152.543 140.543 63 251 63Z" style="transform-origin: -4749px -4737px 0px;"/><path fill="#ffffff" stroke="#323232" fill-opacity="1" stroke-width="8" stroke-opacity="1" alignment-baseline="" baseline-shift="" id="tSvg188d2dcc440" title="Rectangle 7" d="M125 142C186.6667 142 248.3333 142 310 142C310 179 310 216 310 253C248.3333 253 186.6667 253 125 253C125 216 125 179 125 142Z" style="transform-origin: -4782.5px -4802.5px 0px;"/><path fill="#0d5ee4" stroke="#06064e" fill-opacity="1" stroke-width="8" stroke-opacity="1" alignment-baseline="" baseline-shift="" id="tSvg16d174c38c3" rx="0" ry="0" title="Rectangle 8" d="M219 272C265.3333 272 311.6667 272 358 272C358 308.3333 358 344.6667 358 381C311.6667 381 265.3333 381 219 381C219 344.6667 219 308.3333 219 272Z" style="transform-origin: -4711.5px -4673.5px 0px;"/><path fill="#ffffff" stroke="#323232" fill-opacity="1" stroke-width="5" stroke-opacity="1" alignment-baseline="" baseline-shift="" id="tSvg15180a4389d" rx="0" ry="0" title="Rectangle 9" d="M233 284C270.6667 284 308.3333 284 346 284C346 312 346 340 346 368C308.3333 368 270.6667 368 233 368C233 340 233 312 233 284Z" style="transform-origin: -4710.5px -4674px 0px;"/></svg>